# xmcd
#
# Track frame offsets: 
#        150
#        15163
#        33013
#        49013
#        69538
#        88338
#        101413
#        117388
#        132738
#        149188
#        166638
#        184538
#
# Disc length: 2661 seconds
#
# Revision: 0
# Processed by: cddbd v1.5.1PL2 Copyright (c) Steve Scherf et al.
# Submitted via: ExactAudioCopy v0.95b4
#
DISCID=9f0a630c
DTITLE=Lee Greenwood - All-Time Favorites! - Volume Three
DYEAR=1994
DGENRE=Country
TTITLE0=Dixie Road
TTITLE1=Gonna Leave The Light On
TTITLE2=Heartbreak Radio
TTITLE3=My Heart Is On The Line
TTITLE4=If There's Any Justice
TTITLE5=Touch And Go Crazy
TTITLE6=Little Red Caboose
TTITLE7=Morning Ride
TTITLE8=Just Another Somebody's Body
TTITLE9=I Go Crazy
TTITLE10=Love Will Find It's Way To You
TTITLE11=Going, Going, Gone
EXTD=
EXTT0=
EXTT1=
EXTT2=
EXTT3=
EXTT4=
EXTT5=
EXTT6=
EXTT7=
EXTT8=
EXTT9=
EXTT10=
EXTT11=
PLAYORDER=
